<svg width="49" height="76" viewBox="0 0 49 76" fill="none" xmlns="http://www.w3.org/2000/svg">
<path opacity="0.3" d="M41.7043 67.9454C43.6539 65.9008 45.5834 63.954 47.7299 61.6951C48.5625 63.3443 48.2016 64.8496 47.3735 65.9021C44.889 69.0596 42.3068 72.1969 39.4715 75.0783C37.8569 76.7333 35.9619 76.0374 35.3479 73.8218C34.2723 70.1353 33.4124 66.3913 32.4548 62.6272C32.3973 62.4115 32.3009 62.1369 32.38 62.0003C32.5985 61.4338 32.9537 60.9464 33.27 60.4C33.7186 60.6962 34.403 60.8371 34.5769 61.2296C35.2154 62.584 35.697 63.9571 36.2377 65.2913C36.5468 66.0174 36.7582 66.7234 37.6741 67.4724C37.9544 66.3581 38.2937 65.205 38.5741 64.0907C43.1875 40.9377 32.3344 17.913 11.2934 6.7533C8.58026 5.3285 5.74777 4.23584 2.95554 2.94764C1.97926 2.49188 1.06194 1.99729 0.0856586 1.54153C0.087091 1.28704 0.186294 1.05268 0.187726 0.798188C0.834732 0.625637 1.58094 0.218723 2.20639 0.398434C4.2984 0.88005 6.39041 1.36167 8.42204 2.13659C28.6607 9.76798 42.4669 29.8336 42.6931 52.2503C42.7277 56.5378 41.9989 60.8211 41.5834 65.0669C41.5001 65.967 41.2801 66.788 41.0989 67.6679C41.3333 67.7671 41.5087 67.9051 41.7043 67.9454Z" fill="black"/>
</svg>
