<svg width="19" height="20" viewBox="0 0 19 20" fill="none" xmlns="http://www.w3.org/2000/svg">
<g clip-path="url(#clip0_249_9477)">
<path d="M13.3771 2.18628H5.58297C3.43069 2.18628 1.68591 3.93105 1.68591 6.08334V13.8775C1.68591 16.0297 3.43069 17.7745 5.58297 17.7745H13.3771C15.5294 17.7745 17.2741 16.0297 17.2741 13.8775V6.08334C17.2741 3.93105 15.5294 2.18628 13.3771 2.18628Z" stroke="white" stroke-width="1.5" stroke-linecap="round" stroke-linejoin="round"/>
<path d="M12.5977 9.48944C12.6939 10.1381 12.5831 10.8006 12.2811 11.3826C11.979 11.9647 11.5012 12.4367 10.9154 12.7315C10.3297 13.0264 9.6659 13.129 9.01847 13.0248C8.37104 12.9206 7.77295 12.615 7.30926 12.1513C6.84557 11.6876 6.5399 11.0895 6.43572 10.4421C6.33154 9.79463 6.43416 9.13083 6.72898 8.54509C7.0238 7.95935 7.49581 7.48148 8.07787 7.17946C8.65994 6.87743 9.32241 6.76664 9.97108 6.86283C10.6327 6.96094 11.2453 7.26926 11.7183 7.74224C12.1913 8.21522 12.4996 8.82778 12.5977 9.48944Z" stroke="white" stroke-width="1.5" stroke-linecap="round" stroke-linejoin="round"/>
<path d="M13.7667 5.6936H13.7742" stroke="white" stroke-width="1.5" stroke-linecap="round" stroke-linejoin="round"/>
</g>
<defs>
<clipPath id="clip0_249_9477">
<rect width="18.7059" height="18.7059" fill="white" transform="translate(0.127075 0.627441)"/>
</clipPath>
</defs>
</svg>
