<svg width="83" height="83" viewBox="0 0 83 83" fill="none" xmlns="http://www.w3.org/2000/svg">
<path d="M41.3568 0.288086C41.4473 0.288086 49.2481 8.32416 49.2843 18.2245C49.2848 20.3089 48.9799 22.3821 48.3793 24.3782C49.4057 22.4907 50.7047 20.7648 52.2345 19.2561C59.3294 12.3603 70.4966 12.2879 70.569 12.3422C70.6414 12.3965 70.4423 23.5818 63.4922 30.6225C61.9826 32.1519 60.2419 33.4344 58.3339 34.4233C60.34 33.8482 62.419 33.5678 64.5058 33.5907C74.388 33.7174 82.3516 41.5906 82.3516 41.6811C82.3516 41.7716 74.3156 49.5724 64.4334 49.6086C62.3498 49.6149 60.2766 49.3162 58.2796 48.7217C60.1749 49.736 61.9025 51.0363 63.4017 52.5769C70.2975 59.6537 70.3699 70.8571 70.3156 70.9114C70.2613 70.9657 59.076 70.7847 52.0535 63.8345C50.5321 62.3137 49.2451 60.5754 48.2346 58.6763C48.8167 60.6813 49.1033 62.7604 49.0852 64.8481C48.9585 74.7303 41.1035 82.7121 40.9949 82.7121C40.8863 82.7121 33.1217 74.676 33.0674 64.7757C33.0759 62.692 33.3806 60.62 33.9723 58.6219C32.9521 60.5134 31.6524 62.2402 30.1172 63.7441C23.0404 70.6399 11.855 70.7123 11.8007 70.658C11.7465 70.6037 11.9274 59.4184 18.8594 52.3778C20.3803 50.8564 22.1187 49.5693 24.0177 48.5588C22.015 49.1512 19.9343 49.438 17.8459 49.4095C7.9818 49.2828 0 41.4096 0 41.3191C0 41.2286 8.03611 33.4278 17.9183 33.3916C20.0019 33.3839 22.0754 33.6827 24.072 34.2785C22.1797 33.2596 20.4527 31.9598 18.9499 30.4233C12.0722 23.3465 11.9817 12.1431 12.0541 12.0888C12.1265 12.0345 23.2937 12.2155 30.3163 19.1656C31.8313 20.6877 33.1121 22.426 34.1171 24.3239C33.5449 22.3168 33.2586 20.2391 33.2664 18.152C33.4112 8.23365 41.2663 0.288086 41.3568 0.288086Z" fill="black"/>
</svg>
