<svg width="25" height="24" viewBox="0 0 25 24" fill="none" xmlns="http://www.w3.org/2000/svg">
<path opacity="0.4" d="M14.9184 5.49C14.4423 5.40206 14.0051 5.70586 13.9145 6.17054C13.8239 6.63522 14.1286 7.08891 14.5917 7.17984C15.986 7.45166 17.0626 8.53092 17.3354 9.92995V9.93095C17.4131 10.3337 17.7677 10.6265 18.176 10.6265C18.2308 10.6265 18.2855 10.6215 18.3413 10.6115C18.8044 10.5186 19.1091 10.0659 19.0185 9.60018C18.6112 7.51062 17.0028 5.89672 14.9184 5.49Z" fill="black"/>
<path opacity="0.4" d="M14.8561 2.00793C14.633 1.97595 14.4089 2.04191 14.2307 2.18381C14.0474 2.32771 13.9329 2.53557 13.908 2.76841C13.8552 3.23908 14.1948 3.66479 14.6649 3.71776C17.9065 4.07951 20.4262 6.60477 20.7907 9.85654C20.8395 10.2922 21.205 10.621 21.6412 10.621C21.674 10.621 21.7059 10.619 21.7388 10.615C21.9668 10.59 22.17 10.4771 22.3134 10.2972C22.4558 10.1174 22.5206 9.89351 22.4947 9.66467C22.0405 5.60746 18.9005 2.45862 14.8561 2.00793Z" fill="black"/>
<path d="M18.1049 14.6729C17.4566 14.535 16.9437 14.8348 16.4896 15.0967C16.0245 15.3665 15.1391 16.081 14.6332 15.8971C12.0379 14.8338 9.59693 12.5704 8.54028 9.97617C8.35405 9.45953 9.06811 8.57314 9.33601 8.10546C9.59793 7.65177 9.89272 7.13513 9.75827 6.48557C9.63677 5.90097 8.06524 3.90934 7.50952 3.36472C7.14204 3.00496 6.76758 2.8071 6.38216 2.77412C4.93313 2.71316 3.31479 4.63884 3.03095 5.09952C2.31888 6.08185 2.32386 7.38895 3.0429 8.97386C4.77577 13.2309 11.3298 19.6555 15.6201 21.4463C16.4109 21.815 17.1359 21.9999 17.7862 21.9999C18.4226 21.9999 18.9893 21.823 19.4763 21.4723C19.8428 21.2614 21.8565 19.5696 21.8027 18.0876C21.7718 17.7099 21.5736 17.3321 21.2171 16.9664C20.6734 16.4078 18.6875 14.7959 18.1049 14.6729Z" fill="black"/>
</svg>
