<svg width="20" height="20" viewBox="0 0 20 20" fill="none" xmlns="http://www.w3.org/2000/svg">
<g clip-path="url(#clip0_249_9483)">
<path d="M18.0876 5.63129C17.995 5.26139 17.8064 4.92247 17.5409 4.64877C17.2754 4.37507 16.9424 4.17628 16.5755 4.07247C15.2349 3.74512 9.87256 3.74512 9.87256 3.74512C9.87256 3.74512 4.51021 3.74512 3.16962 4.10365C2.80271 4.20745 2.46969 4.40625 2.2042 4.67995C1.93871 4.95365 1.75014 5.29257 1.65756 5.66247C1.41221 7.02298 1.2922 8.40312 1.29903 9.78556C1.29028 11.1784 1.4103 12.5691 1.65756 13.9398C1.75963 14.2982 1.95242 14.6243 2.21729 14.8864C2.48216 15.1485 2.81017 15.3379 3.16962 15.4363C4.51021 15.7948 9.87256 15.7948 9.87256 15.7948C9.87256 15.7948 15.2349 15.7948 16.5755 15.4363C16.9424 15.3325 17.2754 15.1337 17.5409 14.86C17.8064 14.5863 17.995 14.2474 18.0876 13.8775C18.331 12.5272 18.451 11.1576 18.4461 9.78556C18.4548 8.39271 18.3348 7.00204 18.0876 5.63129V5.63129Z" stroke="white" stroke-width="1.5" stroke-linecap="round" stroke-linejoin="round"/>
<path d="M8.11902 12.3342L12.6006 9.78549L8.11902 7.23682V12.3342Z" stroke="white" stroke-width="1.5" stroke-linecap="round" stroke-linejoin="round"/>
</g>
<defs>
<clipPath id="clip0_249_9483">
<rect width="18.7059" height="18.7059" fill="white" transform="translate(0.519775 0.627441)"/>
</clipPath>
</defs>
</svg>
